<mxfile host="app.diagrams.net" agent="Mozilla/5.0 (Windows NT 10.0; Win64; x64) AppleWebKit/537.36 (KHTML, like Gecko) Chrome/131.0.0.0 Safari/537.36" version="24.8.8">
  <diagram id="C5RBs43oDa-KdzZeNtuy" name="Page-1">
    <mxGraphModel dx="1195" dy="622" grid="1" gridSize="10" guides="1" tooltips="1" connect="1" arrows="1" fold="1" page="1" pageScale="1" pageWidth="827" pageHeight="1169" math="0" shadow="0">
      <root>
        <mxCell id="WIyWlLk6GJQsqaUBKTNV-0" />
        <mxCell id="WIyWlLk6GJQsqaUBKTNV-1" parent="WIyWlLk6GJQsqaUBKTNV-0" />
        <mxCell id="zkfFHV4jXpPFQw0GAbJ--0" value="Card" style="swimlane;fontStyle=2;align=center;verticalAlign=top;childLayout=stackLayout;horizontal=1;startSize=26;horizontalStack=0;resizeParent=1;resizeLast=0;collapsible=1;marginBottom=0;rounded=0;shadow=0;strokeWidth=1;" parent="WIyWlLk6GJQsqaUBKTNV-1" vertex="1">
          <mxGeometry x="220" y="120" width="160" height="140" as="geometry">
            <mxRectangle x="230" y="140" width="160" height="26" as="alternateBounds" />
          </mxGeometry>
        </mxCell>
        <mxCell id="zkfFHV4jXpPFQw0GAbJ--1" value="-cardNumber: String" style="text;align=left;verticalAlign=top;spacingLeft=4;spacingRight=4;overflow=hidden;rotatable=0;points=[[0,0.5],[1,0.5]];portConstraint=eastwest;" parent="zkfFHV4jXpPFQw0GAbJ--0" vertex="1">
          <mxGeometry y="26" width="160" height="26" as="geometry" />
        </mxCell>
        <mxCell id="zkfFHV4jXpPFQw0GAbJ--2" value="-expiryDate: String" style="text;align=left;verticalAlign=top;spacingLeft=4;spacingRight=4;overflow=hidden;rotatable=0;points=[[0,0.5],[1,0.5]];portConstraint=eastwest;rounded=0;shadow=0;html=0;" parent="zkfFHV4jXpPFQw0GAbJ--0" vertex="1">
          <mxGeometry y="52" width="160" height="26" as="geometry" />
        </mxCell>
        <mxCell id="zkfFHV4jXpPFQw0GAbJ--3" value="-cardHolderName: String" style="text;align=left;verticalAlign=top;spacingLeft=4;spacingRight=4;overflow=hidden;rotatable=0;points=[[0,0.5],[1,0.5]];portConstraint=eastwest;rounded=0;shadow=0;html=0;" parent="zkfFHV4jXpPFQw0GAbJ--0" vertex="1">
          <mxGeometry y="78" width="160" height="26" as="geometry" />
        </mxCell>
        <mxCell id="zkfFHV4jXpPFQw0GAbJ--4" value="" style="line;html=1;strokeWidth=1;align=left;verticalAlign=middle;spacingTop=-1;spacingLeft=3;spacingRight=3;rotatable=0;labelPosition=right;points=[];portConstraint=eastwest;" parent="zkfFHV4jXpPFQw0GAbJ--0" vertex="1">
          <mxGeometry y="104" width="160" height="8" as="geometry" />
        </mxCell>
        <mxCell id="zkfFHV4jXpPFQw0GAbJ--5" value="+isValid(): boolean" style="text;align=left;verticalAlign=top;spacingLeft=4;spacingRight=4;overflow=hidden;rotatable=0;points=[[0,0.5],[1,0.5]];portConstraint=eastwest;" parent="zkfFHV4jXpPFQw0GAbJ--0" vertex="1">
          <mxGeometry y="112" width="160" height="28" as="geometry" />
        </mxCell>
        <mxCell id="5kT2PxCdmdSCpiU1-hBM-7" value="Cart" style="swimlane;fontStyle=2;align=center;verticalAlign=top;childLayout=stackLayout;horizontal=1;startSize=26;horizontalStack=0;resizeParent=1;resizeLast=0;collapsible=1;marginBottom=0;rounded=0;shadow=0;strokeWidth=1;" vertex="1" parent="WIyWlLk6GJQsqaUBKTNV-1">
          <mxGeometry x="490" y="120" width="160" height="114" as="geometry">
            <mxRectangle x="230" y="140" width="160" height="26" as="alternateBounds" />
          </mxGeometry>
        </mxCell>
        <mxCell id="5kT2PxCdmdSCpiU1-hBM-8" value="-id: long" style="text;align=left;verticalAlign=top;spacingLeft=4;spacingRight=4;overflow=hidden;rotatable=0;points=[[0,0.5],[1,0.5]];portConstraint=eastwest;" vertex="1" parent="5kT2PxCdmdSCpiU1-hBM-7">
          <mxGeometry y="26" width="160" height="26" as="geometry" />
        </mxCell>
        <mxCell id="5kT2PxCdmdSCpiU1-hBM-9" value="-products: List&lt;CartProduct&gt;" style="text;align=left;verticalAlign=top;spacingLeft=4;spacingRight=4;overflow=hidden;rotatable=0;points=[[0,0.5],[1,0.5]];portConstraint=eastwest;rounded=0;shadow=0;html=0;" vertex="1" parent="5kT2PxCdmdSCpiU1-hBM-7">
          <mxGeometry y="52" width="160" height="26" as="geometry" />
        </mxCell>
        <mxCell id="5kT2PxCdmdSCpiU1-hBM-11" value="" style="line;html=1;strokeWidth=1;align=left;verticalAlign=middle;spacingTop=-1;spacingLeft=3;spacingRight=3;rotatable=0;labelPosition=right;points=[];portConstraint=eastwest;" vertex="1" parent="5kT2PxCdmdSCpiU1-hBM-7">
          <mxGeometry y="78" width="160" height="8" as="geometry" />
        </mxCell>
        <mxCell id="5kT2PxCdmdSCpiU1-hBM-12" value="+getTotalPrice(): double" style="text;align=left;verticalAlign=top;spacingLeft=4;spacingRight=4;overflow=hidden;rotatable=0;points=[[0,0.5],[1,0.5]];portConstraint=eastwest;" vertex="1" parent="5kT2PxCdmdSCpiU1-hBM-7">
          <mxGeometry y="86" width="160" height="28" as="geometry" />
        </mxCell>
        <mxCell id="5kT2PxCdmdSCpiU1-hBM-13" value="CartProduct&#xa;" style="swimlane;fontStyle=2;align=center;verticalAlign=top;childLayout=stackLayout;horizontal=1;startSize=26;horizontalStack=0;resizeParent=1;resizeLast=0;collapsible=1;marginBottom=0;rounded=0;shadow=0;strokeWidth=1;" vertex="1" parent="WIyWlLk6GJQsqaUBKTNV-1">
          <mxGeometry x="490" y="270" width="160" height="112" as="geometry">
            <mxRectangle x="230" y="140" width="160" height="26" as="alternateBounds" />
          </mxGeometry>
        </mxCell>
        <mxCell id="5kT2PxCdmdSCpiU1-hBM-14" value="-id: long" style="text;align=left;verticalAlign=top;spacingLeft=4;spacingRight=4;overflow=hidden;rotatable=0;points=[[0,0.5],[1,0.5]];portConstraint=eastwest;" vertex="1" parent="5kT2PxCdmdSCpiU1-hBM-13">
          <mxGeometry y="26" width="160" height="26" as="geometry" />
        </mxCell>
        <mxCell id="5kT2PxCdmdSCpiU1-hBM-15" value="-product: Product" style="text;align=left;verticalAlign=top;spacingLeft=4;spacingRight=4;overflow=hidden;rotatable=0;points=[[0,0.5],[1,0.5]];portConstraint=eastwest;rounded=0;shadow=0;html=0;" vertex="1" parent="5kT2PxCdmdSCpiU1-hBM-13">
          <mxGeometry y="52" width="160" height="26" as="geometry" />
        </mxCell>
        <mxCell id="5kT2PxCdmdSCpiU1-hBM-16" value="-quantity: int" style="text;align=left;verticalAlign=top;spacingLeft=4;spacingRight=4;overflow=hidden;rotatable=0;points=[[0,0.5],[1,0.5]];portConstraint=eastwest;rounded=0;shadow=0;html=0;" vertex="1" parent="5kT2PxCdmdSCpiU1-hBM-13">
          <mxGeometry y="78" width="160" height="26" as="geometry" />
        </mxCell>
        <mxCell id="5kT2PxCdmdSCpiU1-hBM-17" value="" style="line;html=1;strokeWidth=1;align=left;verticalAlign=middle;spacingTop=-1;spacingLeft=3;spacingRight=3;rotatable=0;labelPosition=right;points=[];portConstraint=eastwest;" vertex="1" parent="5kT2PxCdmdSCpiU1-hBM-13">
          <mxGeometry y="104" width="160" height="8" as="geometry" />
        </mxCell>
        <mxCell id="5kT2PxCdmdSCpiU1-hBM-19" value="" style="endArrow=classic;html=1;rounded=0;entryX=0;entryY=0.5;entryDx=0;entryDy=0;exitX=0;exitY=0.089;exitDx=0;exitDy=0;exitPerimeter=0;" edge="1" parent="WIyWlLk6GJQsqaUBKTNV-1" source="5kT2PxCdmdSCpiU1-hBM-13" target="5kT2PxCdmdSCpiU1-hBM-9">
          <mxGeometry width="50" height="50" relative="1" as="geometry">
            <mxPoint x="410" y="310" as="sourcePoint" />
            <mxPoint x="460" y="260" as="targetPoint" />
            <Array as="points">
              <mxPoint x="460" y="280" />
              <mxPoint x="440" y="280" />
              <mxPoint x="440" y="185" />
            </Array>
          </mxGeometry>
        </mxCell>
        <mxCell id="5kT2PxCdmdSCpiU1-hBM-29" value="Coupon" style="swimlane;fontStyle=2;align=center;verticalAlign=top;childLayout=stackLayout;horizontal=1;startSize=26;horizontalStack=0;resizeParent=1;resizeLast=0;collapsible=1;marginBottom=0;rounded=0;shadow=0;strokeWidth=1;" vertex="1" parent="WIyWlLk6GJQsqaUBKTNV-1">
          <mxGeometry x="220" y="290" width="170" height="256" as="geometry">
            <mxRectangle x="230" y="140" width="160" height="26" as="alternateBounds" />
          </mxGeometry>
        </mxCell>
        <mxCell id="5kT2PxCdmdSCpiU1-hBM-30" value="-code: String" style="text;align=left;verticalAlign=top;spacingLeft=4;spacingRight=4;overflow=hidden;rotatable=0;points=[[0,0.5],[1,0.5]];portConstraint=eastwest;" vertex="1" parent="5kT2PxCdmdSCpiU1-hBM-29">
          <mxGeometry y="26" width="170" height="26" as="geometry" />
        </mxCell>
        <mxCell id="5kT2PxCdmdSCpiU1-hBM-31" value="-discountAmount: Integer" style="text;align=left;verticalAlign=top;spacingLeft=4;spacingRight=4;overflow=hidden;rotatable=0;points=[[0,0.5],[1,0.5]];portConstraint=eastwest;rounded=0;shadow=0;html=0;" vertex="1" parent="5kT2PxCdmdSCpiU1-hBM-29">
          <mxGeometry y="52" width="170" height="26" as="geometry" />
        </mxCell>
        <mxCell id="5kT2PxCdmdSCpiU1-hBM-34" value="-discountPercentage: Integer" style="text;align=left;verticalAlign=top;spacingLeft=4;spacingRight=4;overflow=hidden;rotatable=0;points=[[0,0.5],[1,0.5]];portConstraint=eastwest;rounded=0;shadow=0;html=0;" vertex="1" parent="5kT2PxCdmdSCpiU1-hBM-29">
          <mxGeometry y="78" width="170" height="26" as="geometry" />
        </mxCell>
        <mxCell id="5kT2PxCdmdSCpiU1-hBM-35" value="-expirationDate: LocaleDate" style="text;align=left;verticalAlign=top;spacingLeft=4;spacingRight=4;overflow=hidden;rotatable=0;points=[[0,0.5],[1,0.5]];portConstraint=eastwest;rounded=0;shadow=0;html=0;" vertex="1" parent="5kT2PxCdmdSCpiU1-hBM-29">
          <mxGeometry y="104" width="170" height="26" as="geometry" />
        </mxCell>
        <mxCell id="5kT2PxCdmdSCpiU1-hBM-32" value="" style="line;html=1;strokeWidth=1;align=left;verticalAlign=middle;spacingTop=-1;spacingLeft=3;spacingRight=3;rotatable=0;labelPosition=right;points=[];portConstraint=eastwest;" vertex="1" parent="5kT2PxCdmdSCpiU1-hBM-29">
          <mxGeometry y="130" width="170" height="42" as="geometry" />
        </mxCell>
        <mxCell id="5kT2PxCdmdSCpiU1-hBM-37" value="+getDiscountString(): String" style="text;align=left;verticalAlign=top;spacingLeft=4;spacingRight=4;overflow=hidden;rotatable=0;points=[[0,0.5],[1,0.5]];portConstraint=eastwest;" vertex="1" parent="5kT2PxCdmdSCpiU1-hBM-29">
          <mxGeometry y="172" width="170" height="28" as="geometry" />
        </mxCell>
        <mxCell id="5kT2PxCdmdSCpiU1-hBM-36" value="+applyDiscount(): double" style="text;align=left;verticalAlign=top;spacingLeft=4;spacingRight=4;overflow=hidden;rotatable=0;points=[[0,0.5],[1,0.5]];portConstraint=eastwest;" vertex="1" parent="5kT2PxCdmdSCpiU1-hBM-29">
          <mxGeometry y="200" width="170" height="28" as="geometry" />
        </mxCell>
        <mxCell id="5kT2PxCdmdSCpiU1-hBM-33" value="+isValid(): boolean" style="text;align=left;verticalAlign=top;spacingLeft=4;spacingRight=4;overflow=hidden;rotatable=0;points=[[0,0.5],[1,0.5]];portConstraint=eastwest;" vertex="1" parent="5kT2PxCdmdSCpiU1-hBM-29">
          <mxGeometry y="228" width="170" height="28" as="geometry" />
        </mxCell>
        <mxCell id="5kT2PxCdmdSCpiU1-hBM-38" value="Order" style="swimlane;fontStyle=2;align=center;verticalAlign=top;childLayout=stackLayout;horizontal=1;startSize=26;horizontalStack=0;resizeParent=1;resizeLast=0;collapsible=1;marginBottom=0;rounded=0;shadow=0;strokeWidth=1;" vertex="1" parent="WIyWlLk6GJQsqaUBKTNV-1">
          <mxGeometry x="485" y="410" width="245" height="220" as="geometry">
            <mxRectangle x="230" y="140" width="160" height="26" as="alternateBounds" />
          </mxGeometry>
        </mxCell>
        <mxCell id="5kT2PxCdmdSCpiU1-hBM-39" value="-id: long" style="text;align=left;verticalAlign=top;spacingLeft=4;spacingRight=4;overflow=hidden;rotatable=0;points=[[0,0.5],[1,0.5]];portConstraint=eastwest;" vertex="1" parent="5kT2PxCdmdSCpiU1-hBM-38">
          <mxGeometry y="26" width="245" height="26" as="geometry" />
        </mxCell>
        <mxCell id="5kT2PxCdmdSCpiU1-hBM-40" value="-orderedProducts: List&lt;OrderedProducts&gt;" style="text;align=left;verticalAlign=top;spacingLeft=4;spacingRight=4;overflow=hidden;rotatable=0;points=[[0,0.5],[1,0.5]];portConstraint=eastwest;rounded=0;shadow=0;html=0;" vertex="1" parent="5kT2PxCdmdSCpiU1-hBM-38">
          <mxGeometry y="52" width="245" height="26" as="geometry" />
        </mxCell>
        <mxCell id="5kT2PxCdmdSCpiU1-hBM-41" value="-status: String" style="text;align=left;verticalAlign=top;spacingLeft=4;spacingRight=4;overflow=hidden;rotatable=0;points=[[0,0.5],[1,0.5]];portConstraint=eastwest;rounded=0;shadow=0;html=0;" vertex="1" parent="5kT2PxCdmdSCpiU1-hBM-38">
          <mxGeometry y="78" width="245" height="26" as="geometry" />
        </mxCell>
        <mxCell id="5kT2PxCdmdSCpiU1-hBM-42" value="-shippingMethod: ShippingMethod" style="text;align=left;verticalAlign=top;spacingLeft=4;spacingRight=4;overflow=hidden;rotatable=0;points=[[0,0.5],[1,0.5]];portConstraint=eastwest;rounded=0;shadow=0;html=0;" vertex="1" parent="5kT2PxCdmdSCpiU1-hBM-38">
          <mxGeometry y="104" width="245" height="26" as="geometry" />
        </mxCell>
        <mxCell id="5kT2PxCdmdSCpiU1-hBM-47" value="-coupon: Coupon" style="text;align=left;verticalAlign=top;spacingLeft=4;spacingRight=4;overflow=hidden;rotatable=0;points=[[0,0.5],[1,0.5]];portConstraint=eastwest;rounded=0;shadow=0;html=0;" vertex="1" parent="5kT2PxCdmdSCpiU1-hBM-38">
          <mxGeometry y="130" width="245" height="26" as="geometry" />
        </mxCell>
        <mxCell id="5kT2PxCdmdSCpiU1-hBM-43" value="" style="line;html=1;strokeWidth=1;align=left;verticalAlign=middle;spacingTop=-1;spacingLeft=3;spacingRight=3;rotatable=0;labelPosition=right;points=[];portConstraint=eastwest;" vertex="1" parent="5kT2PxCdmdSCpiU1-hBM-38">
          <mxGeometry y="156" width="245" height="24" as="geometry" />
        </mxCell>
        <mxCell id="5kT2PxCdmdSCpiU1-hBM-44" value="+getTotalPrice(): double" style="text;align=left;verticalAlign=top;spacingLeft=4;spacingRight=4;overflow=hidden;rotatable=0;points=[[0,0.5],[1,0.5]];portConstraint=eastwest;" vertex="1" parent="5kT2PxCdmdSCpiU1-hBM-38">
          <mxGeometry y="180" width="245" height="28" as="geometry" />
        </mxCell>
        <mxCell id="5kT2PxCdmdSCpiU1-hBM-48" value="" style="endArrow=classic;html=1;rounded=0;exitX=1.01;exitY=0.077;exitDx=0;exitDy=0;exitPerimeter=0;entryX=0;entryY=0.5;entryDx=0;entryDy=0;" edge="1" parent="WIyWlLk6GJQsqaUBKTNV-1" source="5kT2PxCdmdSCpiU1-hBM-29" target="5kT2PxCdmdSCpiU1-hBM-47">
          <mxGeometry width="50" height="50" relative="1" as="geometry">
            <mxPoint x="390" y="560" as="sourcePoint" />
            <mxPoint x="440" y="510" as="targetPoint" />
            <Array as="points">
              <mxPoint x="420" y="310" />
              <mxPoint x="420" y="370" />
              <mxPoint x="420" y="430" />
              <mxPoint x="420" y="550" />
            </Array>
          </mxGeometry>
        </mxCell>
        <mxCell id="5kT2PxCdmdSCpiU1-hBM-49" value="OrderedProduct" style="swimlane;fontStyle=2;align=center;verticalAlign=top;childLayout=stackLayout;horizontal=1;startSize=26;horizontalStack=0;resizeParent=1;resizeLast=0;collapsible=1;marginBottom=0;rounded=0;shadow=0;strokeWidth=1;" vertex="1" parent="WIyWlLk6GJQsqaUBKTNV-1">
          <mxGeometry x="220" y="570" width="160" height="140" as="geometry">
            <mxRectangle x="230" y="140" width="160" height="26" as="alternateBounds" />
          </mxGeometry>
        </mxCell>
        <mxCell id="5kT2PxCdmdSCpiU1-hBM-50" value="-id: long" style="text;align=left;verticalAlign=top;spacingLeft=4;spacingRight=4;overflow=hidden;rotatable=0;points=[[0,0.5],[1,0.5]];portConstraint=eastwest;" vertex="1" parent="5kT2PxCdmdSCpiU1-hBM-49">
          <mxGeometry y="26" width="160" height="26" as="geometry" />
        </mxCell>
        <mxCell id="5kT2PxCdmdSCpiU1-hBM-51" value="-product: Product" style="text;align=left;verticalAlign=top;spacingLeft=4;spacingRight=4;overflow=hidden;rotatable=0;points=[[0,0.5],[1,0.5]];portConstraint=eastwest;rounded=0;shadow=0;html=0;" vertex="1" parent="5kT2PxCdmdSCpiU1-hBM-49">
          <mxGeometry y="52" width="160" height="26" as="geometry" />
        </mxCell>
        <mxCell id="5kT2PxCdmdSCpiU1-hBM-52" value="-quantity: int" style="text;align=left;verticalAlign=top;spacingLeft=4;spacingRight=4;overflow=hidden;rotatable=0;points=[[0,0.5],[1,0.5]];portConstraint=eastwest;rounded=0;shadow=0;html=0;" vertex="1" parent="5kT2PxCdmdSCpiU1-hBM-49">
          <mxGeometry y="78" width="160" height="26" as="geometry" />
        </mxCell>
        <mxCell id="5kT2PxCdmdSCpiU1-hBM-53" value="" style="line;html=1;strokeWidth=1;align=left;verticalAlign=middle;spacingTop=-1;spacingLeft=3;spacingRight=3;rotatable=0;labelPosition=right;points=[];portConstraint=eastwest;" vertex="1" parent="5kT2PxCdmdSCpiU1-hBM-49">
          <mxGeometry y="104" width="160" height="8" as="geometry" />
        </mxCell>
        <mxCell id="5kT2PxCdmdSCpiU1-hBM-54" value="+getTotalPrice(): double" style="text;align=left;verticalAlign=top;spacingLeft=4;spacingRight=4;overflow=hidden;rotatable=0;points=[[0,0.5],[1,0.5]];portConstraint=eastwest;" vertex="1" parent="5kT2PxCdmdSCpiU1-hBM-49">
          <mxGeometry y="112" width="160" height="28" as="geometry" />
        </mxCell>
        <mxCell id="5kT2PxCdmdSCpiU1-hBM-55" value="" style="endArrow=classic;html=1;rounded=0;entryX=0;entryY=0.5;entryDx=0;entryDy=0;exitX=0.99;exitY=0.099;exitDx=0;exitDy=0;exitPerimeter=0;" edge="1" parent="WIyWlLk6GJQsqaUBKTNV-1" source="5kT2PxCdmdSCpiU1-hBM-49" target="5kT2PxCdmdSCpiU1-hBM-40">
          <mxGeometry width="50" height="50" relative="1" as="geometry">
            <mxPoint x="390" y="560" as="sourcePoint" />
            <mxPoint x="440" y="510" as="targetPoint" />
            <Array as="points">
              <mxPoint x="440" y="584" />
              <mxPoint x="440" y="475" />
            </Array>
          </mxGeometry>
        </mxCell>
        <mxCell id="5kT2PxCdmdSCpiU1-hBM-56" value="Product" style="swimlane;fontStyle=2;align=center;verticalAlign=top;childLayout=stackLayout;horizontal=1;startSize=26;horizontalStack=0;resizeParent=1;resizeLast=0;collapsible=1;marginBottom=0;rounded=0;shadow=0;strokeWidth=1;" vertex="1" parent="WIyWlLk6GJQsqaUBKTNV-1">
          <mxGeometry x="480" y="660" width="160" height="262" as="geometry">
            <mxRectangle x="230" y="140" width="160" height="26" as="alternateBounds" />
          </mxGeometry>
        </mxCell>
        <mxCell id="5kT2PxCdmdSCpiU1-hBM-57" value="-id: long" style="text;align=left;verticalAlign=top;spacingLeft=4;spacingRight=4;overflow=hidden;rotatable=0;points=[[0,0.5],[1,0.5]];portConstraint=eastwest;" vertex="1" parent="5kT2PxCdmdSCpiU1-hBM-56">
          <mxGeometry y="26" width="160" height="26" as="geometry" />
        </mxCell>
        <mxCell id="5kT2PxCdmdSCpiU1-hBM-58" value="-name: String" style="text;align=left;verticalAlign=top;spacingLeft=4;spacingRight=4;overflow=hidden;rotatable=0;points=[[0,0.5],[1,0.5]];portConstraint=eastwest;rounded=0;shadow=0;html=0;" vertex="1" parent="5kT2PxCdmdSCpiU1-hBM-56">
          <mxGeometry y="52" width="160" height="26" as="geometry" />
        </mxCell>
        <mxCell id="5kT2PxCdmdSCpiU1-hBM-59" value="-description: String" style="text;align=left;verticalAlign=top;spacingLeft=4;spacingRight=4;overflow=hidden;rotatable=0;points=[[0,0.5],[1,0.5]];portConstraint=eastwest;rounded=0;shadow=0;html=0;" vertex="1" parent="5kT2PxCdmdSCpiU1-hBM-56">
          <mxGeometry y="78" width="160" height="26" as="geometry" />
        </mxCell>
        <mxCell id="5kT2PxCdmdSCpiU1-hBM-60" value="-price: double" style="text;align=left;verticalAlign=top;spacingLeft=4;spacingRight=4;overflow=hidden;rotatable=0;points=[[0,0.5],[1,0.5]];portConstraint=eastwest;rounded=0;shadow=0;html=0;" vertex="1" parent="5kT2PxCdmdSCpiU1-hBM-56">
          <mxGeometry y="104" width="160" height="26" as="geometry" />
        </mxCell>
        <mxCell id="5kT2PxCdmdSCpiU1-hBM-61" value="-stock: int" style="text;align=left;verticalAlign=top;spacingLeft=4;spacingRight=4;overflow=hidden;rotatable=0;points=[[0,0.5],[1,0.5]];portConstraint=eastwest;rounded=0;shadow=0;html=0;" vertex="1" parent="5kT2PxCdmdSCpiU1-hBM-56">
          <mxGeometry y="130" width="160" height="26" as="geometry" />
        </mxCell>
        <mxCell id="5kT2PxCdmdSCpiU1-hBM-64" value="-status: ProductStatus" style="text;align=left;verticalAlign=top;spacingLeft=4;spacingRight=4;overflow=hidden;rotatable=0;points=[[0,0.5],[1,0.5]];portConstraint=eastwest;rounded=0;shadow=0;html=0;" vertex="1" parent="5kT2PxCdmdSCpiU1-hBM-56">
          <mxGeometry y="156" width="160" height="26" as="geometry" />
        </mxCell>
        <mxCell id="5kT2PxCdmdSCpiU1-hBM-62" value="" style="line;html=1;strokeWidth=1;align=left;verticalAlign=middle;spacingTop=-1;spacingLeft=3;spacingRight=3;rotatable=0;labelPosition=right;points=[];portConstraint=eastwest;" vertex="1" parent="5kT2PxCdmdSCpiU1-hBM-56">
          <mxGeometry y="182" width="160" height="24" as="geometry" />
        </mxCell>
        <mxCell id="5kT2PxCdmdSCpiU1-hBM-65" value="+getSellingPrice(): double" style="text;align=left;verticalAlign=top;spacingLeft=4;spacingRight=4;overflow=hidden;rotatable=0;points=[[0,0.5],[1,0.5]];portConstraint=eastwest;" vertex="1" parent="5kT2PxCdmdSCpiU1-hBM-56">
          <mxGeometry y="206" width="160" height="28" as="geometry" />
        </mxCell>
        <mxCell id="5kT2PxCdmdSCpiU1-hBM-63" value="+getStatusName(): String" style="text;align=left;verticalAlign=top;spacingLeft=4;spacingRight=4;overflow=hidden;rotatable=0;points=[[0,0.5],[1,0.5]];portConstraint=eastwest;" vertex="1" parent="5kT2PxCdmdSCpiU1-hBM-56">
          <mxGeometry y="234" width="160" height="28" as="geometry" />
        </mxCell>
        <mxCell id="5kT2PxCdmdSCpiU1-hBM-66" value="" style="endArrow=classic;html=1;rounded=0;exitX=0;exitY=0.076;exitDx=0;exitDy=0;exitPerimeter=0;entryX=1;entryY=0.5;entryDx=0;entryDy=0;" edge="1" parent="WIyWlLk6GJQsqaUBKTNV-1" source="5kT2PxCdmdSCpiU1-hBM-56" target="5kT2PxCdmdSCpiU1-hBM-51">
          <mxGeometry width="50" height="50" relative="1" as="geometry">
            <mxPoint x="390" y="640" as="sourcePoint" />
            <mxPoint x="390" y="620" as="targetPoint" />
          </mxGeometry>
        </mxCell>
        <mxCell id="5kT2PxCdmdSCpiU1-hBM-67" value="" style="endArrow=classic;html=1;rounded=0;entryX=0;entryY=0.5;entryDx=0;entryDy=0;" edge="1" parent="WIyWlLk6GJQsqaUBKTNV-1" target="5kT2PxCdmdSCpiU1-hBM-15">
          <mxGeometry width="50" height="50" relative="1" as="geometry">
            <mxPoint x="480" y="680" as="sourcePoint" />
            <mxPoint x="450" y="310" as="targetPoint" />
            <Array as="points">
              <mxPoint x="430" y="680" />
              <mxPoint x="430" y="510" />
              <mxPoint x="430" y="420" />
              <mxPoint x="430" y="380" />
              <mxPoint x="430" y="335" />
            </Array>
          </mxGeometry>
        </mxCell>
        <mxCell id="5kT2PxCdmdSCpiU1-hBM-68" value="&lt;&lt;enum&gt;&gt;&#xa;ProducStatus" style="swimlane;fontStyle=2;align=center;verticalAlign=top;childLayout=stackLayout;horizontal=1;startSize=40;horizontalStack=0;resizeParent=1;resizeLast=0;collapsible=1;marginBottom=0;rounded=0;shadow=0;strokeWidth=1;" vertex="1" parent="WIyWlLk6GJQsqaUBKTNV-1">
          <mxGeometry x="225" y="750" width="160" height="99" as="geometry">
            <mxRectangle x="230" y="140" width="160" height="26" as="alternateBounds" />
          </mxGeometry>
        </mxCell>
        <mxCell id="5kT2PxCdmdSCpiU1-hBM-69" value="ACTIVE" style="text;align=left;verticalAlign=top;spacingLeft=4;spacingRight=4;overflow=hidden;rotatable=0;points=[[0,0.5],[1,0.5]];portConstraint=eastwest;" vertex="1" parent="5kT2PxCdmdSCpiU1-hBM-68">
          <mxGeometry y="40" width="160" height="25" as="geometry" />
        </mxCell>
        <mxCell id="5kT2PxCdmdSCpiU1-hBM-70" value="INACTIVE" style="text;align=left;verticalAlign=top;spacingLeft=4;spacingRight=4;overflow=hidden;rotatable=0;points=[[0,0.5],[1,0.5]];portConstraint=eastwest;rounded=0;shadow=0;html=0;" vertex="1" parent="5kT2PxCdmdSCpiU1-hBM-68">
          <mxGeometry y="65" width="160" height="26" as="geometry" />
        </mxCell>
        <mxCell id="5kT2PxCdmdSCpiU1-hBM-72" value="" style="line;html=1;strokeWidth=1;align=left;verticalAlign=middle;spacingTop=-1;spacingLeft=3;spacingRight=3;rotatable=0;labelPosition=right;points=[];portConstraint=eastwest;" vertex="1" parent="5kT2PxCdmdSCpiU1-hBM-68">
          <mxGeometry y="91" width="160" height="8" as="geometry" />
        </mxCell>
        <mxCell id="5kT2PxCdmdSCpiU1-hBM-73" value="" style="endArrow=classic;html=1;rounded=0;exitX=1;exitY=0.25;exitDx=0;exitDy=0;entryX=0;entryY=0.5;entryDx=0;entryDy=0;" edge="1" parent="WIyWlLk6GJQsqaUBKTNV-1" source="5kT2PxCdmdSCpiU1-hBM-68" target="5kT2PxCdmdSCpiU1-hBM-64">
          <mxGeometry width="50" height="50" relative="1" as="geometry">
            <mxPoint x="390" y="720" as="sourcePoint" />
            <mxPoint x="440" y="670" as="targetPoint" />
          </mxGeometry>
        </mxCell>
        <mxCell id="5kT2PxCdmdSCpiU1-hBM-74" value="ShippingMethod" style="swimlane;fontStyle=2;align=center;verticalAlign=top;childLayout=stackLayout;horizontal=1;startSize=26;horizontalStack=0;resizeParent=1;resizeLast=0;collapsible=1;marginBottom=0;rounded=0;shadow=0;strokeWidth=1;" vertex="1" parent="WIyWlLk6GJQsqaUBKTNV-1">
          <mxGeometry x="220" y="890" width="160" height="138" as="geometry">
            <mxRectangle x="230" y="140" width="160" height="26" as="alternateBounds" />
          </mxGeometry>
        </mxCell>
        <mxCell id="5kT2PxCdmdSCpiU1-hBM-75" value="-id: long" style="text;align=left;verticalAlign=top;spacingLeft=4;spacingRight=4;overflow=hidden;rotatable=0;points=[[0,0.5],[1,0.5]];portConstraint=eastwest;" vertex="1" parent="5kT2PxCdmdSCpiU1-hBM-74">
          <mxGeometry y="26" width="160" height="26" as="geometry" />
        </mxCell>
        <mxCell id="5kT2PxCdmdSCpiU1-hBM-76" value="-name: String" style="text;align=left;verticalAlign=top;spacingLeft=4;spacingRight=4;overflow=hidden;rotatable=0;points=[[0,0.5],[1,0.5]];portConstraint=eastwest;rounded=0;shadow=0;html=0;" vertex="1" parent="5kT2PxCdmdSCpiU1-hBM-74">
          <mxGeometry y="52" width="160" height="26" as="geometry" />
        </mxCell>
        <mxCell id="5kT2PxCdmdSCpiU1-hBM-77" value="-const: double" style="text;align=left;verticalAlign=top;spacingLeft=4;spacingRight=4;overflow=hidden;rotatable=0;points=[[0,0.5],[1,0.5]];portConstraint=eastwest;rounded=0;shadow=0;html=0;" vertex="1" parent="5kT2PxCdmdSCpiU1-hBM-74">
          <mxGeometry y="78" width="160" height="26" as="geometry" />
        </mxCell>
        <mxCell id="5kT2PxCdmdSCpiU1-hBM-79" value="-estimatedDeliveryDays: int" style="text;align=left;verticalAlign=top;spacingLeft=4;spacingRight=4;overflow=hidden;rotatable=0;points=[[0,0.5],[1,0.5]];portConstraint=eastwest;rounded=0;shadow=0;html=0;" vertex="1" parent="5kT2PxCdmdSCpiU1-hBM-74">
          <mxGeometry y="104" width="160" height="26" as="geometry" />
        </mxCell>
        <mxCell id="5kT2PxCdmdSCpiU1-hBM-78" value="" style="line;html=1;strokeWidth=1;align=left;verticalAlign=middle;spacingTop=-1;spacingLeft=3;spacingRight=3;rotatable=0;labelPosition=right;points=[];portConstraint=eastwest;" vertex="1" parent="5kT2PxCdmdSCpiU1-hBM-74">
          <mxGeometry y="130" width="160" height="8" as="geometry" />
        </mxCell>
        <mxCell id="5kT2PxCdmdSCpiU1-hBM-80" value="" style="endArrow=classic;html=1;rounded=0;exitX=1.01;exitY=0.094;exitDx=0;exitDy=0;exitPerimeter=0;entryX=0;entryY=0.5;entryDx=0;entryDy=0;" edge="1" parent="WIyWlLk6GJQsqaUBKTNV-1" source="5kT2PxCdmdSCpiU1-hBM-74" target="5kT2PxCdmdSCpiU1-hBM-42">
          <mxGeometry width="50" height="50" relative="1" as="geometry">
            <mxPoint x="390" y="960" as="sourcePoint" />
            <mxPoint x="440" y="910" as="targetPoint" />
            <Array as="points">
              <mxPoint x="410" y="903" />
              <mxPoint x="410" y="527" />
            </Array>
          </mxGeometry>
        </mxCell>
        <mxCell id="5kT2PxCdmdSCpiU1-hBM-81" value="User" style="swimlane;fontStyle=2;align=center;verticalAlign=top;childLayout=stackLayout;horizontal=1;startSize=26;horizontalStack=0;resizeParent=1;resizeLast=0;collapsible=1;marginBottom=0;rounded=0;shadow=0;strokeWidth=1;" vertex="1" parent="WIyWlLk6GJQsqaUBKTNV-1">
          <mxGeometry x="427.5" y="960" width="442.5" height="264" as="geometry">
            <mxRectangle x="230" y="140" width="160" height="26" as="alternateBounds" />
          </mxGeometry>
        </mxCell>
        <mxCell id="5kT2PxCdmdSCpiU1-hBM-82" value="-name: String" style="text;align=left;verticalAlign=top;spacingLeft=4;spacingRight=4;overflow=hidden;rotatable=0;points=[[0,0.5],[1,0.5]];portConstraint=eastwest;" vertex="1" parent="5kT2PxCdmdSCpiU1-hBM-81">
          <mxGeometry y="26" width="442.5" height="26" as="geometry" />
        </mxCell>
        <mxCell id="5kT2PxCdmdSCpiU1-hBM-83" value="-email: String" style="text;align=left;verticalAlign=top;spacingLeft=4;spacingRight=4;overflow=hidden;rotatable=0;points=[[0,0.5],[1,0.5]];portConstraint=eastwest;rounded=0;shadow=0;html=0;" vertex="1" parent="5kT2PxCdmdSCpiU1-hBM-81">
          <mxGeometry y="52" width="442.5" height="26" as="geometry" />
        </mxCell>
        <mxCell id="5kT2PxCdmdSCpiU1-hBM-84" value="-password: String" style="text;align=left;verticalAlign=top;spacingLeft=4;spacingRight=4;overflow=hidden;rotatable=0;points=[[0,0.5],[1,0.5]];portConstraint=eastwest;rounded=0;shadow=0;html=0;" vertex="1" parent="5kT2PxCdmdSCpiU1-hBM-81">
          <mxGeometry y="78" width="442.5" height="26" as="geometry" />
        </mxCell>
        <mxCell id="5kT2PxCdmdSCpiU1-hBM-85" value="-role: UserRole" style="text;align=left;verticalAlign=top;spacingLeft=4;spacingRight=4;overflow=hidden;rotatable=0;points=[[0,0.5],[1,0.5]];portConstraint=eastwest;rounded=0;shadow=0;html=0;" vertex="1" parent="5kT2PxCdmdSCpiU1-hBM-81">
          <mxGeometry y="104" width="442.5" height="26" as="geometry" />
        </mxCell>
        <mxCell id="5kT2PxCdmdSCpiU1-hBM-86" value="-wishlist: Wishlist" style="text;align=left;verticalAlign=top;spacingLeft=4;spacingRight=4;overflow=hidden;rotatable=0;points=[[0,0.5],[1,0.5]];portConstraint=eastwest;rounded=0;shadow=0;html=0;" vertex="1" parent="5kT2PxCdmdSCpiU1-hBM-81">
          <mxGeometry y="130" width="442.5" height="26" as="geometry" />
        </mxCell>
        <mxCell id="5kT2PxCdmdSCpiU1-hBM-88" value="" style="line;html=1;strokeWidth=1;align=left;verticalAlign=middle;spacingTop=-1;spacingLeft=3;spacingRight=3;rotatable=0;labelPosition=right;points=[];portConstraint=eastwest;" vertex="1" parent="5kT2PxCdmdSCpiU1-hBM-81">
          <mxGeometry y="156" width="442.5" height="24" as="geometry" />
        </mxCell>
        <mxCell id="5kT2PxCdmdSCpiU1-hBM-91" value="+register(name:String, email:String,password:String, role:UserRole): String" style="text;align=left;verticalAlign=top;spacingLeft=4;spacingRight=4;overflow=hidden;rotatable=0;points=[[0,0.5],[1,0.5]];portConstraint=eastwest;" vertex="1" parent="5kT2PxCdmdSCpiU1-hBM-81">
          <mxGeometry y="180" width="442.5" height="28" as="geometry" />
        </mxCell>
        <mxCell id="5kT2PxCdmdSCpiU1-hBM-89" value="+login(password:String, email:String): String" style="text;align=left;verticalAlign=top;spacingLeft=4;spacingRight=4;overflow=hidden;rotatable=0;points=[[0,0.5],[1,0.5]];portConstraint=eastwest;" vertex="1" parent="5kT2PxCdmdSCpiU1-hBM-81">
          <mxGeometry y="208" width="442.5" height="28" as="geometry" />
        </mxCell>
        <mxCell id="5kT2PxCdmdSCpiU1-hBM-90" value="+roleToString(): String" style="text;align=left;verticalAlign=top;spacingLeft=4;spacingRight=4;overflow=hidden;rotatable=0;points=[[0,0.5],[1,0.5]];portConstraint=eastwest;" vertex="1" parent="5kT2PxCdmdSCpiU1-hBM-81">
          <mxGeometry y="236" width="442.5" height="28" as="geometry" />
        </mxCell>
        <mxCell id="5kT2PxCdmdSCpiU1-hBM-92" value="&lt;&lt;enum&gt;&gt;&#xa;UserRole" style="swimlane;fontStyle=2;align=center;verticalAlign=top;childLayout=stackLayout;horizontal=1;startSize=40;horizontalStack=0;resizeParent=1;resizeLast=0;collapsible=1;marginBottom=0;rounded=0;shadow=0;strokeWidth=1;" vertex="1" parent="WIyWlLk6GJQsqaUBKTNV-1">
          <mxGeometry x="220" y="1070" width="160" height="125" as="geometry">
            <mxRectangle x="230" y="140" width="160" height="26" as="alternateBounds" />
          </mxGeometry>
        </mxCell>
        <mxCell id="5kT2PxCdmdSCpiU1-hBM-93" value="USER" style="text;align=left;verticalAlign=top;spacingLeft=4;spacingRight=4;overflow=hidden;rotatable=0;points=[[0,0.5],[1,0.5]];portConstraint=eastwest;" vertex="1" parent="5kT2PxCdmdSCpiU1-hBM-92">
          <mxGeometry y="40" width="160" height="25" as="geometry" />
        </mxCell>
        <mxCell id="5kT2PxCdmdSCpiU1-hBM-94" value="ADMIN" style="text;align=left;verticalAlign=top;spacingLeft=4;spacingRight=4;overflow=hidden;rotatable=0;points=[[0,0.5],[1,0.5]];portConstraint=eastwest;rounded=0;shadow=0;html=0;" vertex="1" parent="5kT2PxCdmdSCpiU1-hBM-92">
          <mxGeometry y="65" width="160" height="26" as="geometry" />
        </mxCell>
        <mxCell id="5kT2PxCdmdSCpiU1-hBM-96" value="SUPERADMIN" style="text;align=left;verticalAlign=top;spacingLeft=4;spacingRight=4;overflow=hidden;rotatable=0;points=[[0,0.5],[1,0.5]];portConstraint=eastwest;rounded=0;shadow=0;html=0;" vertex="1" parent="5kT2PxCdmdSCpiU1-hBM-92">
          <mxGeometry y="91" width="160" height="26" as="geometry" />
        </mxCell>
        <mxCell id="5kT2PxCdmdSCpiU1-hBM-95" value="" style="line;html=1;strokeWidth=1;align=left;verticalAlign=middle;spacingTop=-1;spacingLeft=3;spacingRight=3;rotatable=0;labelPosition=right;points=[];portConstraint=eastwest;" vertex="1" parent="5kT2PxCdmdSCpiU1-hBM-92">
          <mxGeometry y="117" width="160" height="8" as="geometry" />
        </mxCell>
        <mxCell id="5kT2PxCdmdSCpiU1-hBM-97" value="" style="endArrow=classic;html=1;rounded=0;exitX=1;exitY=0.25;exitDx=0;exitDy=0;" edge="1" parent="WIyWlLk6GJQsqaUBKTNV-1" source="5kT2PxCdmdSCpiU1-hBM-92">
          <mxGeometry width="50" height="50" relative="1" as="geometry">
            <mxPoint x="390" y="1010" as="sourcePoint" />
            <mxPoint x="428" y="1080" as="targetPoint" />
            <Array as="points">
              <mxPoint x="400" y="1100" />
              <mxPoint x="400" y="1080" />
            </Array>
          </mxGeometry>
        </mxCell>
        <mxCell id="5kT2PxCdmdSCpiU1-hBM-99" value="Wishlist" style="swimlane;fontStyle=2;align=center;verticalAlign=top;childLayout=stackLayout;horizontal=1;startSize=26;horizontalStack=0;resizeParent=1;resizeLast=0;collapsible=1;marginBottom=0;rounded=0;shadow=0;strokeWidth=1;" vertex="1" parent="WIyWlLk6GJQsqaUBKTNV-1">
          <mxGeometry x="187.5" y="1250" width="240" height="210" as="geometry">
            <mxRectangle x="230" y="140" width="160" height="26" as="alternateBounds" />
          </mxGeometry>
        </mxCell>
        <mxCell id="5kT2PxCdmdSCpiU1-hBM-100" value="-user: User" style="text;align=left;verticalAlign=top;spacingLeft=4;spacingRight=4;overflow=hidden;rotatable=0;points=[[0,0.5],[1,0.5]];portConstraint=eastwest;" vertex="1" parent="5kT2PxCdmdSCpiU1-hBM-99">
          <mxGeometry y="26" width="240" height="26" as="geometry" />
        </mxCell>
        <mxCell id="5kT2PxCdmdSCpiU1-hBM-101" value="-products: List&lt;Product&gt;" style="text;align=left;verticalAlign=top;spacingLeft=4;spacingRight=4;overflow=hidden;rotatable=0;points=[[0,0.5],[1,0.5]];portConstraint=eastwest;rounded=0;shadow=0;html=0;" vertex="1" parent="5kT2PxCdmdSCpiU1-hBM-99">
          <mxGeometry y="52" width="240" height="26" as="geometry" />
        </mxCell>
        <mxCell id="5kT2PxCdmdSCpiU1-hBM-104" value="" style="line;html=1;strokeWidth=1;align=left;verticalAlign=middle;spacingTop=-1;spacingLeft=3;spacingRight=3;rotatable=0;labelPosition=right;points=[];portConstraint=eastwest;" vertex="1" parent="5kT2PxCdmdSCpiU1-hBM-99">
          <mxGeometry y="78" width="240" height="42" as="geometry" />
        </mxCell>
        <mxCell id="5kT2PxCdmdSCpiU1-hBM-105" value="+addItem(item:Product): boolean" style="text;align=left;verticalAlign=top;spacingLeft=4;spacingRight=4;overflow=hidden;rotatable=0;points=[[0,0.5],[1,0.5]];portConstraint=eastwest;" vertex="1" parent="5kT2PxCdmdSCpiU1-hBM-99">
          <mxGeometry y="120" width="240" height="28" as="geometry" />
        </mxCell>
        <mxCell id="5kT2PxCdmdSCpiU1-hBM-106" value="+removeItem(item:Product): boolean" style="text;align=left;verticalAlign=top;spacingLeft=4;spacingRight=4;overflow=hidden;rotatable=0;points=[[0,0.5],[1,0.5]];portConstraint=eastwest;" vertex="1" parent="5kT2PxCdmdSCpiU1-hBM-99">
          <mxGeometry y="148" width="240" height="28" as="geometry" />
        </mxCell>
        <mxCell id="5kT2PxCdmdSCpiU1-hBM-107" value="+containsItem(item:Product): boolean" style="text;align=left;verticalAlign=top;spacingLeft=4;spacingRight=4;overflow=hidden;rotatable=0;points=[[0,0.5],[1,0.5]];portConstraint=eastwest;" vertex="1" parent="5kT2PxCdmdSCpiU1-hBM-99">
          <mxGeometry y="176" width="240" height="28" as="geometry" />
        </mxCell>
        <mxCell id="5kT2PxCdmdSCpiU1-hBM-108" value="" style="endArrow=classic;html=1;rounded=0;entryX=0;entryY=0.5;entryDx=0;entryDy=0;exitX=0.002;exitY=0.074;exitDx=0;exitDy=0;exitPerimeter=0;" edge="1" parent="WIyWlLk6GJQsqaUBKTNV-1" source="5kT2PxCdmdSCpiU1-hBM-81" target="5kT2PxCdmdSCpiU1-hBM-100">
          <mxGeometry width="50" height="50" relative="1" as="geometry">
            <mxPoint x="410" y="1210" as="sourcePoint" />
            <mxPoint x="160" y="1290" as="targetPoint" />
            <Array as="points">
              <mxPoint x="390" y="980" />
              <mxPoint x="390" y="1210" />
              <mxPoint x="160" y="1210" />
              <mxPoint x="160" y="1290" />
            </Array>
          </mxGeometry>
        </mxCell>
        <mxCell id="5kT2PxCdmdSCpiU1-hBM-109" value="" style="endArrow=classic;html=1;rounded=0;entryX=0;entryY=0.5;entryDx=0;entryDy=0;exitX=-0.005;exitY=0.066;exitDx=0;exitDy=0;exitPerimeter=0;" edge="1" parent="WIyWlLk6GJQsqaUBKTNV-1" source="5kT2PxCdmdSCpiU1-hBM-56" target="5kT2PxCdmdSCpiU1-hBM-101">
          <mxGeometry width="50" height="50" relative="1" as="geometry">
            <mxPoint x="150" y="730" as="sourcePoint" />
            <mxPoint x="440" y="1130" as="targetPoint" />
            <Array as="points">
              <mxPoint x="440" y="677" />
              <mxPoint x="440" y="740" />
              <mxPoint x="308" y="740" />
              <mxPoint x="220" y="740" />
              <mxPoint x="130" y="740" />
              <mxPoint x="140" y="1315" />
            </Array>
          </mxGeometry>
        </mxCell>
      </root>
    </mxGraphModel>
  </diagram>
</mxfile>
